<?xml version="1.0" encoding="iso-8859-1"?>
<!-- Uploaded to: SVG Repo, www.svgrepo.com, Generator: SVG Repo Mixer Tools -->
<svg version="1.1" id="Layer_1" xmlns="http://www.w3.org/2000/svg" xmlns:xlink="http://www.w3.org/1999/xlink" 
	 viewBox="0 0 512 512" xml:space="preserve">
<path style="fill:#E4EAF6;" d="M150.725,499.622h47.633v-73.27l-5.235-0.365c-1.76-0.123-3.137-1.597-3.137-3.356
	c0-1.861,1.515-3.376,3.376-3.376h5.099l0.713-4.799c4.135-27.807,28.471-48.775,56.607-48.775c28.13,0,52.46,20.968,56.596,48.775
	l0.77,4.799h4.851c1.861,0,3.376,1.515,3.376,3.376c0,1.725-1.34,3.198-3.053,3.353l-5.117,0.466v73.171h47.622V344.998h-210.1
	L150.725,499.622L150.725,499.622z"/>
<path style="fill:#C7CFE2;" d="M205.109,499.622h47.294v-41.174c0-1.861,1.515-3.376,3.376-3.376c1.861,0,3.376,1.515,3.376,3.376
	v41.174h47.295v-73.615H205.108v73.615H205.109z"/>
<g>
	<rect x="34.135" y="182.88" style="fill:#E4EAF6;" width="38.631" height="56.05"/>
	<rect x="438.576" y="182.88" style="fill:#E4EAF6;" width="38.642" height="56.05"/>
</g>
<g>
	<rect x="34.135" y="272.688" style="fill:#C7CFE2;" width="38.631" height="226.934"/>
	<rect x="438.576" y="272.688" style="fill:#C7CFE2;" width="38.642" height="226.934"/>
</g>
<g>
	<polygon style="fill:#8F96AC;" points="79.518,499.622 143.973,499.622 143.973,373.885 79.518,399.515 	"/>
	<polygon style="fill:#8F96AC;" points="81.768,251.308 81.757,245.681 25.133,245.681 25.133,265.936 81.768,265.936 	"/>
	<polygon style="fill:#8F96AC;" points="486.203,245.681 429.568,245.681 429.568,265.936 486.214,265.936 486.214,251.308 	"/>
	<polygon style="fill:#8F96AC;" points="367.577,499.622 431.819,499.622 431.819,399.424 367.577,373.886 	"/>
</g>
<g>
	<polygon style="fill:#FFD782;" points="59.09,76.488 47.936,76.482 34.616,176.128 72.289,176.128 	"/>
	<polygon style="fill:#FFD782;" points="463.537,76.488 452.381,76.482 439.05,176.128 476.735,176.128 	"/>
	<path style="fill:#FFD782;" d="M255.781,372.432c-23.716,0-44.488,16.836-49.391,40.033l-1.435,6.79h101.639l-1.435-6.79
		C300.258,389.269,279.491,372.432,255.781,372.432z"/>
	<path style="fill:#FFD782;" d="M326.288,265.206c-19.367-17.568-44.408-27.244-70.507-27.244s-51.143,9.675-70.512,27.243
		c-19.232,17.443-31.297,41.176-33.972,66.831l-0.648,6.21h210.255l-0.648-6.21C357.579,306.381,345.516,282.647,326.288,265.206z"
		/>
</g>
<path d="M498.592,242.305v27.007c0,4.974-4.04,9.002-9.002,9.002v215.681h0.844c4.962,0,9.002,4.028,9.002,9.002
	c0,4.962-4.04,9.002-9.002,9.002h-9.846h-45.394H309.828H201.734H76.142H48.764H30.759h-0.315h-8.878
	c-4.974,0-9.002-4.04-9.002-9.002c0-4.974,4.028-9.002,9.002-9.002h0.191V278.314c-4.974,0-9.002-4.028-9.002-9.002v-27.007
	c0-4.974,4.028-9.002,9.002-9.002v-53.991c0-0.023,0-0.045,0-0.068s0-0.034,0-0.056c0.011-0.585,0.068-1.17,0.191-1.722
	L44.634,7.809c0.304-2.239,1.407-4.197,2.993-5.581C49.214,0.833,51.307,0,53.557,0c4.512,0,8.327,3.342,8.923,7.821l22.472,169.646
	c0.113,0.563,0.18,1.148,0.18,1.744c0,0.011,0.011,0.023,0.011,0.034c0,0.023,0,0.045,0,0.068v53.991
	c4.974,0,9.002,4.028,9.002,9.002v27.007c0,4.974-4.028,9.002-9.002,9.002v105.641l53.203-21.155v-12.175h-0.124
	c-4.974,0-9.002-4.028-9.002-9.002s4.028-9.002,9.002-9.002h0.585c5.019-56.939,50.84-102.344,107.97-106.687v-10.127
	c0-4.974,4.028-9.002,9.002-9.002c4.962,0,9.002,4.028,9.002,9.002v10.127c57.119,4.344,102.94,49.748,107.959,106.687h0.596
	c4.962,0,9.002,4.028,9.002,9.002s-4.04,9.002-9.002,9.002h-0.135V362.8l52.989,21.065V278.314c-4.974,0-9.002-4.028-9.002-9.002
	v-27.007c0-4.974,4.028-9.002,9.002-9.002v-53.991c0-0.023,0.011-0.045,0.011-0.068s0-0.034,0-0.056c0-0.585,0.068-1.17,0.18-1.722
	L449.069,7.809C449.665,3.331,453.491,0,457.992,0c0.011,0,0.011,0,0.011,0c4.512,0,8.327,3.342,8.912,7.821l22.483,169.646
	c0.113,0.563,0.18,1.148,0.18,1.744c0,0.011,0,0.023,0,0.034c0,0.023,0.011,0.045,0.011,0.068v53.991
	C494.553,233.303,498.592,237.332,498.592,242.305z M480.588,260.31v-9.002c-0.011,0-0.011,0-0.011,0h-45.371c0,0,0,0-0.011,0v9.002
	H480.588z M471.586,493.996V278.314h-27.389v215.681H471.586z M471.586,233.303v-44.797h-27.389v44.797H471.586z M470.314,170.502
	l-12.356-93.274l-12.479,93.274H470.314z M426.192,493.996v-90.753l-52.989-21.065v111.819H426.192z M355.199,493.996V369.101
	v-0.011v-18.466H156.351v18.466v0.011v124.894h36.38v-62.397c-4.681-0.326-8.372-4.208-8.372-8.968c0-4.974,4.028-9.002,9.002-9.002
	h0.248c4.501-30.27,30.664-53.574,62.171-53.574c31.496,0,57.659,23.304,62.16,53.574h0.056c4.974,0,9.002,4.028,9.002,9.002
	c0,4.692-3.59,8.541-8.17,8.957v62.408H355.199z M156.891,332.62h197.767c-5.21-49.951-47.565-89.032-98.878-89.032
	S162.101,282.669,156.891,332.62z M300.825,493.996v-62.363h-90.089v62.363h36.043v-35.547c0-4.962,4.028-9.002,9.002-9.002
	c4.962,0,9.002,4.04,9.002,9.002v35.547H300.825z M211.895,413.628h87.76c-4.287-20.289-22.325-35.57-43.874-35.57
	S216.182,393.34,211.895,413.628z M138.347,493.996V382.177l-53.203,21.155v90.663H138.347z M76.142,260.31v-9.002H76.13h-45.36
	c-0.011,0-0.011,0-0.011,0v9.002H76.142z M67.14,493.996V278.314H39.762v215.681h9.002H67.14z M67.14,233.303v-44.797H39.762v44.797
	H67.14z M65.868,170.502L53.512,77.228l-12.468,93.274H65.868z"/>
</svg>